<svg xmlns="http://www.w3.org/2000/svg" width="32" height="32" viewBox="0 0 32 32" fill="none"><path d="M16 2L4 7V14.5C4 22.5 9.2 29.6 16 31C22.8 29.6 28 22.5 28 14.5V7L16 2Z" fill="url(#shield-gradient)"/><path d="M16 4L6 8.2V14.5C6 21.3 10.4 27.5 16 28.8C21.6 27.5 26 21.3 26 14.5V8.2L16 4Z" fill="url(#inner-gradient)"/><g opacity="0.9"><rect x="10" y="10" width="3" height="3" rx="0.5" fill="#22d3ee"/><rect x="14.5" y="10" width="3" height="3" rx="0.5" fill="#a78bfa"/><rect x="19" y="10" width="3" height="3" rx="0.5" fill="#22d3ee"/><rect x="10" y="14.5" width="3" height="3" rx="0.5" fill="#a78bfa"/><rect x="14.5" y="14.5" width="3" height="3" rx="0.5" fill="#f472b6"/><rect x="19" y="14.5" width="3" height="3" rx="0.5" fill="#a78bfa"/><rect x="12.25" y="19" width="3" height="3" rx="0.5" fill="#22d3ee"/><rect x="16.75" y="19" width="3" height="3" rx="0.5" fill="#22d3ee"/></g><rect x="8" y="12" width="16" height="1" fill="url(#scan-line)" opacity="0.6"/><defs><linearGradient id="shield-gradient" x1="16" y1="2" x2="16" y2="31" gradientUnits="userSpaceOnUse"><stop offset="0" stop-color="#1e293b"/><stop offset="1" stop-color="#0f172a"/></linearGradient><linearGradient id="inner-gradient" x1="16" y1="4" x2="16" y2="28.8" gradientUnits="userSpaceOnUse"><stop offset="0" stop-color="#1e3a5f"/><stop offset="1" stop-color="#0c1929"/></linearGradient><linearGradient id="scan-line" x1="8" y1="12" x2="24" y2="12" gradientUnits="userSpaceOnUse"><stop offset="0" stop-color="#22d3ee" stop-opacity="0"/><stop offset="0.5" stop-color="#22d3ee" stop-opacity="1"/><stop offset="1" stop-color="#22d3ee" stop-opacity="0"/></linearGradient></defs></svg>